<?xml version="1.0" encoding="UTF-8"?>
<svg version="1.1" xmlns="http://www.w3.org/2000/svg" width="300" height="300">
<path d="M0 0 C1.0998139 0.54715196 2.1996278 1.09430391 3.33276939 1.65803623 C4.54122298 2.26935536 5.74960251 2.8808209 6.95791626 3.49241638 C8.2599042 4.14402344 9.56224504 4.79492574 10.86490822 5.44518185 C14.34472654 7.18464046 17.81964768 8.93367227 21.29362488 10.68476105 C24.55711463 12.32791631 27.8249405 13.96234621 31.09243774 15.59751892 C40.63872761 20.38114837 50.17802595 25.17871994 59.71817017 29.97459412 C81.04442017 40.67896912 102.37067017 51.38334412 124.34317017 62.41209412 C124.34317017 116.53209412 124.34317017 170.65209412 124.34317017 226.41209412 C102.68692017 237.32271912 81.03067017 248.23334412 58.71817017 259.47459412 C48.46311401 264.65674622 48.46311401 264.65674622 38.00088501 269.94358826 C29.64907837 274.13755798 29.64907837 274.13755798 25.73858643 276.09616089 C23.00485428 277.46675726 20.27582993 278.8462736 17.54937744 280.23129272 C14.07170733 281.99755603 10.5866487 283.74832116 7.0956738 285.4881314 C5.81565967 286.12932566 4.5383355 286.77592495 3.26408458 287.42849743 C1.54217751 288.30935093 -0.19072415 289.16861269 -1.92407227 290.0267334 C-2.8919549 290.51436189 -3.85983753 291.00199038 -4.85704994 291.50439548 C-10.25140128 293.25326344 -14.4503578 291.26524594 -19.31365967 288.82418823 C-20.41347357 288.27703628 -21.51328747 287.72988432 -22.64642906 287.166152 C-23.85488265 286.55483288 -25.06326218 285.94336733 -26.27157593 285.33177185 C-27.57356387 284.68016479 -28.87590471 284.02926249 -30.17856789 283.37900639 C-33.65838621 281.63954777 -37.13330734 279.89051596 -40.60728455 278.13942719 C-43.8707743 276.49627192 -47.13860017 274.86184202 -50.40609741 273.22666931 C-59.95238728 268.44303987 -69.49168561 263.6454683 -79.03182983 258.84959412 C-100.35807983 248.14521912 -121.68432983 237.44084412 -143.65682983 226.41209412 C-143.65682983 172.29209412 -143.65682983 118.17209412 -143.65682983 62.41209412 C-122.00057983 51.50146912 -100.34432983 40.59084412 -78.03182983 29.34959412 C-71.19512573 25.89482605 -64.35842163 22.44005798 -57.31454468 18.88059998 C-48.96273804 14.68663025 -48.96273804 14.68663025 -45.05224609 12.72802734 C-42.31851395 11.35743097 -39.5894896 9.97791464 -36.86303711 8.59289551 C-33.385367 6.8266322 -29.90030837 5.07586707 -26.40933347 3.33605683 C-25.12931934 2.69486257 -23.85199517 2.04826328 -22.57774425 1.3956908 C-20.85583717 0.5148373 -19.12293552 -0.34442445 -17.3895874 -1.20254517 C-15.93776345 -1.9339879 -15.93776345 -1.9339879 -14.45660973 -2.68020725 C-9.06225838 -4.42907521 -4.86330187 -2.44105771 0 0 Z " fill="#3B373A" transform="translate(159.65682983398438,5.5879058837890625)"/>
<path d="M0 0 C0 54.12 0 108.24 0 164 C-21.65625 174.910625 -43.3125 185.82125 -65.625 197.0625 C-75.88005615 202.2446521 -75.88005615 202.2446521 -86.34228516 207.53149414 C-94.6940918 211.72546387 -94.6940918 211.72546387 -98.60458374 213.68406677 C-101.33831589 215.05466315 -104.06734024 216.43417948 -106.79379272 217.81919861 C-110.27146284 219.58546192 -113.75652146 221.33622704 -117.24749637 223.07603729 C-118.5275105 223.71723155 -119.80483467 224.36383084 -121.07908559 225.01640332 C-122.80099266 225.89725681 -124.53389432 226.75651857 -126.26724243 227.61463928 C-127.23512506 228.10226777 -128.2030077 228.58989626 -129.20022011 229.09230137 C-134.43268999 230.78868678 -138.54045766 228.98007742 -143.27046204 226.60864258 C-144.795214 225.85147446 -144.795214 225.85147446 -146.35076904 225.07901001 C-147.99918793 224.24519302 -147.99918793 224.24519302 -149.6809082 223.39453125 C-150.85060654 222.81077728 -152.02030487 222.22702332 -153.22544861 221.62557983 C-156.42293127 220.02954127 -159.61536794 218.42364377 -162.80692315 216.81579208 C-166.14824555 215.13446767 -169.49395783 213.4619236 -172.8391571 211.78833008 C-178.45118689 208.97909494 -184.0602246 206.16396306 -189.66723633 203.34472656 C-196.87143006 199.72244517 -204.08020869 196.10939034 -211.29057026 192.49940491 C-217.48606516 189.39751255 -223.67976605 186.29204426 -229.8730123 183.18566513 C-231.86660074 182.1858352 -233.86037569 181.18637784 -235.85415077 180.18692017 C-239.55945177 178.32907571 -243.26288522 176.46753884 -246.96606445 174.60546875 C-248.07513153 174.04959076 -249.18419861 173.49371277 -250.32687378 172.92098999 C-251.32927597 172.41621124 -252.33167816 171.9114325 -253.36445618 171.39135742 C-254.67876602 170.73099739 -254.67876602 170.73099739 -256.01962757 170.05729675 C-258 169 -258 169 -259 168 C-259.07205511 166.31391034 -259.08386068 164.62499341 -259.0625 162.9375 C-259.05347656 162.01839844 -259.04445313 161.09929687 -259.03515625 160.15234375 C-259.02355469 159.44207031 -259.01195312 158.73179687 -259 158 C-244.79011804 164.64655036 -230.73059219 171.56763159 -216.70703125 178.59765625 C-214.7804872 179.56166602 -212.85385138 180.52549241 -210.92712402 181.48913574 C-203.88781121 185.01138338 -196.85025544 188.53714163 -189.8125 192.0625 C-174.034375 199.961875 -158.25625 207.86125 -142 216 C-142.33 168.81 -142.66 121.62 -143 73 C-153.56 67.72 -164.12 62.44 -175 57 C-176 56 -176 56 -176.09765625 53.71484375 C-176.08605469 52.79832031 -176.07445312 51.88179687 -176.0625 50.9375 C-176.05347656 50.01839844 -176.04445313 49.09929687 -176.03515625 48.15234375 C-176.02355469 47.44207031 -176.01195312 46.73179688 -176 46 C-174.948125 46.515625 -173.89625 47.03125 -172.8125 47.5625 C-169.43152868 49.001789 -167.56388973 49.18796324 -164 48 C-163.18660156 47.54109375 -162.37320313 47.0821875 -161.53515625 46.609375 C-155.83755055 45.62724628 -151.89036419 48.69072383 -147 51.4375 C-145.0706668 52.51347429 -143.13334175 53.57527008 -141.1875 54.62109375 C-140.33542969 55.0998999 -139.48335938 55.57870605 -138.60546875 56.07202148 C-134.57564261 57.5073072 -131.29635656 56.53224334 -127.40438843 54.93432331 C-126.53279083 54.49018683 -125.66119324 54.04605036 -124.76318359 53.5884552 C-123.75390808 53.07934097 -122.74463257 52.57022675 -121.70477295 52.04568481 C-120.61368225 51.48509369 -119.52259155 50.92450256 -118.3984375 50.34692383 C-116.61532876 49.4434898 -114.83221751 48.54006073 -113.04901123 47.63681924 C-111.13968739 46.66789882 -109.23237052 45.69512393 -107.32550049 44.72138405 C-103.34665014 42.69049998 -99.36036482 40.67452986 -95.37255859 38.66130066 C-84.03645772 32.93574197 -72.70859286 27.19411468 -61.39257812 21.42895508 C-55.13728772 18.24223881 -48.87492714 15.06988997 -42.60446358 11.91312999 C-38.63876592 9.91564462 -34.68258047 7.90076284 -30.73248291 5.87261736 C-27.69691589 4.32058369 -24.64834197 2.7947932 -21.6015625 1.26489258 C-20.5104718 0.69822876 -19.4193811 0.13156494 -18.29522705 -0.45227051 C-17.28595154 -0.95292526 -16.27667603 -1.45358002 -15.23681641 -1.96940613 C-14.36521881 -2.41241153 -13.49362122 -2.85541693 -12.59561157 -3.31184673 C-7.83230887 -4.57470222 -4.22979112 -2.11489556 0 0 Z " fill="#2B292B" transform="translate(284,68)"/>
<path d="M0 0 C0.95063324 0.47256729 1.90126648 0.94513458 2.88070679 1.43202209 C3.90641785 1.95206818 4.93212891 2.47211426 5.98892212 3.00791931 C7.08219818 3.55426529 8.17547424 4.10061127 9.30187988 4.66351318 C12.28786279 6.1576566 15.27012465 7.65879594 18.25094175 9.16319203 C21.37106208 10.73578181 24.4957368 12.29926917 27.61993408 13.86373901 C33.53035032 16.82515535 39.43664158 19.79470288 45.34148467 22.76721328 C52.06625504 26.15197797 58.79558829 29.52762268 65.52531505 32.90251935 C79.36414223 39.84282003 93.19721163 46.79451788 107.02651978 53.75376892 C107.02651978 54.41376892 107.02651978 55.07376892 107.02651978 55.75376892 C92.27616381 63.22239637 77.51670245 70.67265973 62.74612999 78.1012125 C55.88807433 81.55086389 49.0331333 85.00645099 42.18521118 88.47618103 C36.21641271 91.50045443 30.24207056 94.51342785 24.26080763 97.51297897 C21.09405312 99.10157003 17.93035629 100.6956682 14.77323532 102.30333138 C11.24834959 104.09800239 7.7111347 105.86742046 4.17251587 107.63487244 C3.12810333 108.17145981 2.0836908 108.70804718 1.00762939 109.26089478 C0.04016785 109.73912689 -0.9272937 110.21735901 -1.92407227 110.71008301 C-2.75921671 111.1313424 -3.59436115 111.5526018 -4.454813 111.98662663 C-9.38421597 113.48803716 -13.51447663 111.73374039 -17.94696045 109.50753784 C-18.89759369 109.03497055 -19.84822693 108.56240326 -20.82766724 108.07551575 C-22.36623383 107.29544662 -22.36623383 107.29544662 -23.93588257 106.49961853 C-25.02915863 105.95327255 -26.12243469 105.40692657 -27.24884033 104.84402466 C-30.23482324 103.34988125 -33.2170851 101.8487419 -36.1979022 100.34434581 C-39.31802253 98.77175603 -42.44269725 97.20826867 -45.56689453 95.64379883 C-51.47731077 92.68238249 -57.38360203 89.71283497 -63.28844512 86.74032456 C-70.01321549 83.35555987 -76.74254874 79.97991516 -83.4722755 76.6050185 C-97.31110268 69.66471781 -111.14417208 62.71301996 -124.97348022 55.75376892 C-124.97348022 55.09376892 -124.97348022 54.43376892 -124.97348022 53.75376892 C-110.22312426 46.28514147 -95.46366289 38.83487811 -80.69309044 31.40632534 C-73.83503477 27.95667395 -66.98009375 24.50108685 -60.13217163 21.03135681 C-54.16337316 18.00708341 -48.18903101 14.99411 -42.20776808 11.99455887 C-39.04101357 10.40596781 -35.87731673 8.81186965 -32.72019577 7.20420647 C-29.19531004 5.40953546 -25.65809515 3.64011738 -22.11947632 1.87266541 C-21.07506378 1.33607803 -20.03065125 0.79949066 -18.95458984 0.24664307 C-17.9871283 -0.23158905 -17.01966675 -0.70982117 -16.02288818 -1.20254517 C-14.77017152 -1.83443426 -14.77017152 -1.83443426 -13.49214745 -2.47908878 C-8.56274448 -3.98049932 -4.43248382 -2.22620255 0 0 Z " fill="#494548" transform="translate(158.97348022460938,13.246231079101563)"/>
<path d="M0 0 C0 54.12 0 108.24 0 164 C-21.65625 174.910625 -43.3125 185.82125 -65.625 197.0625 C-75.88005615 202.2446521 -75.88005615 202.2446521 -86.34228516 207.53149414 C-94.6940918 211.72546387 -94.6940918 211.72546387 -98.60458374 213.68406677 C-101.33831589 215.05466315 -104.06734024 216.43417948 -106.79379272 217.81919861 C-110.27146284 219.58546192 -113.75652146 221.33622704 -117.24749637 223.07603729 C-118.5275105 223.71723155 -119.80483467 224.36383084 -121.07908559 225.01640332 C-122.80099266 225.89725681 -124.53389432 226.75651857 -126.26724243 227.61463928 C-127.23512506 228.10226777 -128.2030077 228.58989626 -129.20022011 229.09230137 C-134.43268999 230.78868678 -138.54045766 228.98007742 -143.27046204 226.60864258 C-144.795214 225.85147446 -144.795214 225.85147446 -146.35076904 225.07901001 C-147.99918793 224.24519302 -147.99918793 224.24519302 -149.6809082 223.39453125 C-150.85060654 222.81077728 -152.02030487 222.22702332 -153.22544861 221.62557983 C-156.42293127 220.02954127 -159.61536794 218.42364377 -162.80692315 216.81579208 C-166.14824555 215.13446767 -169.49395783 213.4619236 -172.8391571 211.78833008 C-178.45118689 208.97909494 -184.0602246 206.16396306 -189.66723633 203.34472656 C-196.87143006 199.72244517 -204.08020869 196.10939034 -211.29057026 192.49940491 C-217.48606516 189.39751255 -223.67976605 186.29204426 -229.8730123 183.18566513 C-231.86660074 182.1858352 -233.86037569 181.18637784 -235.85415077 180.18692017 C-239.55945177 178.32907571 -243.26288522 176.46753884 -246.96606445 174.60546875 C-248.07513153 174.04959076 -249.18419861 173.49371277 -250.32687378 172.92098999 C-251.32927597 172.41621124 -252.33167816 171.9114325 -253.36445618 171.39135742 C-254.67876602 170.73099739 -254.67876602 170.73099739 -256.01962757 170.05729675 C-258 169 -258 169 -259 168 C-259.07205511 166.31391034 -259.08386068 164.62499341 -259.0625 162.9375 C-259.05347656 162.01839844 -259.04445313 161.09929687 -259.03515625 160.15234375 C-259.02355469 159.44207031 -259.01195312 158.73179687 -259 158 C-244.79011804 164.64655036 -230.73059219 171.56763159 -216.70703125 178.59765625 C-214.7804872 179.56166602 -212.85385138 180.52549241 -210.92712402 181.48913574 C-203.88781121 185.01138338 -196.85025544 188.53714163 -189.8125 192.0625 C-174.034375 199.961875 -158.25625 207.86125 -142 216 C-142.33 168.81 -142.66 121.62 -143 73 C-153.56 67.72 -164.12 62.44 -175 57 C-176 56 -176 56 -176.09765625 53.71484375 C-176.08605469 52.79832031 -176.07445312 51.88179687 -176.0625 50.9375 C-176.05347656 50.01839844 -176.04445313 49.09929687 -176.03515625 48.15234375 C-176.02355469 47.44207031 -176.01195312 46.73179688 -176 46 C-174.948125 46.515625 -173.89625 47.03125 -172.8125 47.5625 C-169.43152868 49.001789 -167.56388973 49.18796324 -164 48 C-163.18660156 47.54109375 -162.37320313 47.0821875 -161.53515625 46.609375 C-155.83755055 45.62724628 -151.89036419 48.69072383 -147 51.4375 C-145.0706668 52.51347429 -143.13334175 53.57527008 -141.1875 54.62109375 C-140.33542969 55.0998999 -139.48335938 55.57870605 -138.60546875 56.07202148 C-134.57564261 57.5073072 -131.29635656 56.53224334 -127.40438843 54.93432331 C-126.53279083 54.49018683 -125.66119324 54.04605036 -124.76318359 53.5884552 C-123.75390808 53.07934097 -122.74463257 52.57022675 -121.70477295 52.04568481 C-120.61368225 51.48509369 -119.52259155 50.92450256 -118.3984375 50.34692383 C-116.61532876 49.4434898 -114.83221751 48.54006073 -113.04901123 47.63681924 C-111.13968739 46.66789882 -109.23237052 45.69512393 -107.32550049 44.72138405 C-103.34665014 42.69049998 -99.36036482 40.67452986 -95.37255859 38.66130066 C-84.03645772 32.93574197 -72.70859286 27.19411468 -61.39257812 21.42895508 C-55.13728772 18.24223881 -48.87492714 15.06988997 -42.60446358 11.91312999 C-38.63876592 9.91564462 -34.68258047 7.90076284 -30.73248291 5.87261736 C-27.69691589 4.32058369 -24.64834197 2.7947932 -21.6015625 1.26489258 C-20.5104718 0.69822876 -19.4193811 0.13156494 -18.29522705 -0.45227051 C-17.28595154 -0.95292526 -16.27667603 -1.45358002 -15.23681641 -1.96940613 C-14.36521881 -2.41241153 -13.49362122 -2.85541693 -12.59561157 -3.31184673 C-7.83230887 -4.57470222 -4.22979112 -2.11489556 0 0 Z M-15.56166077 17.1572113 C-17.00243736 17.87445374 -17.00243736 17.87445374 -18.47232056 18.60618591 C-19.52954315 19.13760696 -20.58676575 19.66902802 -21.67602539 20.21655273 C-22.78661819 20.77089996 -23.897211 21.32524719 -25.04145813 21.89639282 C-28.09239132 23.42032104 -31.14148719 24.94781616 -34.18977284 26.4770267 C-37.37507717 28.07406201 -40.56248259 29.66689324 -43.74961853 31.26026917 C-49.10178085 33.93681895 -54.45238308 36.61646627 -59.80200195 39.2980957 C-65.99410918 42.40201399 -72.18829861 45.50174305 -78.38370138 48.59907764 C-84.33486071 51.57435251 -90.28487509 54.55190915 -96.23425102 57.53074837 C-98.77020803 58.8004958 -101.30650625 60.06955796 -103.84306526 61.33810234 C-107.38103907 63.1076831 -110.91730236 64.88066408 -114.45336914 66.65405273 C-115.51261597 67.18344955 -116.57186279 67.71284637 -117.66320801 68.25828552 C-118.62090591 68.73926697 -119.57860382 69.22024841 -120.56532288 69.71580505 C-121.40247865 70.13522086 -122.23963442 70.55463667 -123.10215855 70.98676205 C-124.95438149 71.85746572 -124.95438149 71.85746572 -126 73 C-126.09648248 74.84761268 -126.12187318 76.6989581 -126.12025452 78.54908752 C-126.12162918 79.75368622 -126.12300385 80.95828491 -126.12442017 82.1993866 C-126.12088056 83.54641748 -126.11724575 84.89344812 -126.11352539 86.24047852 C-126.11324352 87.64947508 -126.11340125 89.05847179 -126.1139679 90.46746826 C-126.11425589 94.3040763 -126.10835894 98.14065334 -126.10139394 101.97725415 C-126.09516063 105.98246941 -126.09455662 109.9876853 -126.09336853 113.99290466 C-126.09025515 121.58252004 -126.08204167 129.17212108 -126.07201904 136.76173013 C-126.06085812 145.40003924 -126.05534751 154.03834901 -126.05032361 162.67666352 C-126.03985906 180.45111715 -126.02225948 198.22555742 -126 216 C-122.21053338 214.79763163 -118.66362425 213.45663488 -115.10917664 211.6782074 C-114.17681686 211.21412476 -113.24445709 210.75004211 -112.28384399 210.27189636 C-111.27840546 209.76636734 -110.27296692 209.26083832 -109.23706055 208.73999023 C-107.6288166 207.93729202 -107.6288166 207.93729202 -105.98808289 207.11837769 C-103.06135755 205.65654573 -100.13644252 204.19116827 -97.21236777 202.72404361 C-94.14988122 201.18839637 -91.08527673 199.6569868 -88.02095032 198.12501526 C-82.88100658 195.55457595 -77.74261803 192.98104995 -72.60522461 190.40551758 C-66.66070427 187.4253772 -60.71408946 184.44945163 -54.76626748 181.47590679 C-49.04362446 178.61489001 -43.32212583 175.7515929 -37.60126686 172.88701057 C-35.1657885 171.66750362 -32.72996984 170.44868025 -30.29389 169.23037529 C-26.90023503 167.53246967 -23.5079076 165.83194213 -20.1159668 164.13061523 C-18.59262726 163.36928535 -18.59262726 163.36928535 -17.03851318 162.59257507 C-16.12025253 162.13131226 -15.20199188 161.67004944 -14.25590515 161.19480896 C-13.45344203 160.79273948 -12.65097891 160.39066999 -11.82419872 159.97641659 C-10.03603707 159.13261343 -10.03603707 159.13261343 -9 158 C-8.90351752 156.15238732 -8.87812682 154.3010419 -8.87974548 152.45091248 C-8.87837082 151.24631378 -8.87699615 150.04171509 -8.87557983 148.8006134 C-8.87911944 147.45358252 -8.88275425 146.10655188 -8.88647461 144.75952148 C-8.88675648 143.35052492 -8.88659875 141.94152821 -8.8860321 140.53253174 C-8.88574411 136.6959237 -8.89164106 132.85934666 -8.89860606 129.02274585 C-8.90483937 125.01753059 -8.90544338 121.0123147 -8.90663147 117.00709534 C-8.90974485 109.41747996 -8.91795833 101.82787892 -8.92798096 94.23826987 C-8.93914188 85.59996076 -8.94465249 76.96165099 -8.94967639 68.32333648 C-8.96014094 50.54888285 -8.97774052 32.77444258 -9 15 C-11.65856737 15 -13.17936849 15.96529039 -15.56166077 17.1572113 Z " fill="#211B1C" transform="translate(284,68)"/>
<path d="M0 0 C1.01794647 0.50622391 2.03589294 1.01244781 3.08468628 1.53401184 C4.18520325 2.09146088 5.28572021 2.64890991 6.41958618 3.22325134 C7.59089081 3.8086116 8.76219543 4.39397186 9.96899414 4.99707031 C13.17050559 6.59725355 16.36699661 8.20723657 19.56266356 9.81905293 C22.90700398 11.50374778 26.25589477 13.17934777 29.60430908 14.85592651 C35.9397148 18.02983905 42.27099855 21.21188481 48.60083449 24.3968882 C55.80927388 28.02348284 63.0222728 31.64096379 70.23566508 35.25769436 C85.06980238 42.69565341 99.89818491 50.14501068 114.72280884 57.60191345 C114.72280884 58.26191345 114.72280884 58.92191345 114.72280884 59.60191345 C109.56471559 62.79501879 109.56471559 62.79501879 106.17959595 62.01858521 C101.33348227 60.03253511 96.7032186 57.6883566 92.03921509 55.31016541 C90.97508392 54.77182068 89.91095276 54.23347595 88.8145752 53.67881775 C86.50898879 52.51219688 84.20425105 51.3438976 81.90026855 50.17411232 C78.25526651 48.32367031 74.60586175 46.48203424 70.95547485 44.64224243 C69.70350104 44.01111249 68.4515327 43.37997169 67.1995697 42.7488203 C66.57288202 42.43289091 65.94619434 42.11696151 65.30051613 41.79145849 C56.80931776 37.50985923 48.32201406 33.22068085 39.84292603 28.91514587 C34.11356057 26.00596151 28.37856761 23.10821435 22.63694286 20.22329682 C19.60195472 18.69773554 16.57021465 17.16637699 13.54534912 15.62082863 C10.17291165 13.90095551 6.79109485 12.20107532 3.40640259 10.50547791 C2.40881927 9.9907341 1.41123596 9.4759903 0.38342285 8.94564819 C-4.72203341 6.39493667 -4.72203341 6.39493667 -10.27322388 5.47279358 C-15.0214717 7.25754703 -19.50570729 9.46555265 -24.02426147 11.76426697 C-25.09481781 12.30085938 -26.16537415 12.83745178 -27.26837158 13.39030457 C-30.19243126 14.85770128 -33.11284152 16.33207909 -36.03189182 17.80940747 C-39.08943885 19.3544462 -42.15187184 20.88973523 -45.21389771 22.4258728 C-51.00843489 25.33450361 -56.79918025 28.2505932 -62.58830714 31.16997522 C-72.96758852 36.40402831 -83.35142177 41.62902264 -93.73941112 46.84577125 C-96.78691296 48.37655892 -99.833348 49.90940406 -102.87757111 51.44670296 C-106.26594059 53.15746599 -109.65659306 54.86362383 -113.04769897 56.56895447 C-114.05966339 57.08167404 -115.07162781 57.59439362 -116.11425781 58.12265015 C-117.49371078 58.81465012 -117.49371078 58.81465012 -118.90103149 59.52062988 C-119.70257282 59.92491998 -120.50411415 60.32921007 -121.32994461 60.74575138 C-123.27719116 61.60191345 -123.27719116 61.60191345 -125.27719116 61.60191345 C-125.27719116 62.26191345 -125.27719116 62.92191345 -125.27719116 63.60191345 C-124.05182144 63.9706105 -124.05182144 63.9706105 -122.80169678 64.34675598 C-118.64705919 65.82631793 -114.81737643 67.69978804 -110.88510132 69.68443298 C-110.06492523 70.094375 -109.24474915 70.50431702 -108.39971924 70.92668152 C-105.7033158 72.275577 -103.00978658 73.63010885 -100.31625366 74.98472595 C-98.4417033 75.92386722 -96.5669754 76.86265417 -94.69207764 77.80110168 C-89.76827142 80.26681496 -84.84688713 82.73732457 -79.92599487 85.20884705 C-74.89998537 87.73209819 -69.87169589 90.25079709 -64.84359741 92.7698822 C-54.98589426 97.70944464 -45.13074419 102.65407805 -35.27719116 107.60191345 C-35.27719116 108.26191345 -35.27719116 108.92191345 -35.27719116 109.60191345 C-40.52909956 112.65534857 -40.52909956 112.65534857 -43.90219116 112.41441345 C-46.27719116 111.60191345 -46.27719116 111.60191345 -50.27719116 109.60191345 C-50.60719116 112.57191345 -50.93719116 115.54191345 -51.27719116 118.60191345 C-66.84288292 111.35751109 -82.19749482 103.70337853 -97.54129028 96.00419617 C-100.79298902 94.37313591 -104.0458904 92.74447759 -107.29867554 91.11558533 C-113.62599161 87.94664188 -119.95202541 84.77514703 -126.27719116 81.60191345 C-126.27719116 84.90191345 -126.27719116 88.20191345 -126.27719116 91.60191345 C-128.58719116 90.61191345 -130.89719116 89.62191345 -133.27719116 88.60191345 C-133.60719116 135.46191345 -133.93719116 182.32191345 -134.27719116 230.60191345 C-137.24719116 229.28191345 -140.21719116 227.96191345 -143.27719116 226.60191345 C-143.27719116 172.48191345 -143.27719116 118.36191345 -143.27719116 62.60191345 C-121.62094116 51.69128845 -99.96469116 40.78066345 -77.65219116 29.53941345 C-70.81548706 26.08464539 -63.97878296 22.62987732 -56.93490601 19.07041931 C-48.58309937 14.87644958 -48.58309937 14.87644958 -44.67260742 12.91784668 C-41.93887527 11.5472503 -39.20985093 10.16773397 -36.48339844 8.78271484 C-33.00572832 7.01645154 -29.5206697 5.26568641 -26.0296948 3.52587616 C-24.74968066 2.8846819 -23.4723565 2.23808262 -22.19810557 1.58551013 C-20.4761985 0.70465664 -18.74329684 -0.15460512 -17.00994873 -1.01272583 C-15.55812478 -1.74416856 -15.55812478 -1.74416856 -14.07697105 -2.49038792 C-8.84028028 -4.18814175 -4.73207598 -2.37595848 0 0 Z " fill="#302828" transform="translate(159.27719116210938,5.3980865478515625)"/>
<path d="M0 0 C2.64 1.32 5.28 2.64 8 4 C8 40.96 8 77.92 8 116 C4.24866005 114.74955335 1.14853677 113.69913238 -2.29013062 111.97518921 C-3.08930908 111.57697464 -3.88848755 111.17876007 -4.71188354 110.76847839 C-5.99798019 110.12003716 -5.99798019 110.12003716 -7.31005859 109.45849609 C-8.22777039 108.99978622 -9.14548218 108.54107635 -10.09100342 108.06846619 C-13.1120608 106.55724301 -16.13024783 105.04037879 -19.1484375 103.5234375 C-21.24719046 102.47219519 -23.34612078 101.42130691 -25.44522095 100.37075806 C-30.96086295 97.60912485 -36.47408521 94.84269449 -41.98681641 92.07525635 C-47.61605875 89.25039318 -53.24757759 86.43007614 -58.87890625 83.609375 C-69.92150409 78.07736162 -80.96133619 72.53985926 -92 67 C-92 60.07 -92 53.14 -92 46 C-88.04 47.98 -88.04 47.98 -84 50 C-84 53.63 -84 57.26 -84 61 C-83.14841309 61.26280762 -82.29682617 61.52561523 -81.41943359 61.79638672 C-77.87335202 63.04457907 -74.64453121 64.56468609 -71.2890625 66.2578125 C-70.67606293 66.56572723 -70.06306335 66.87364197 -69.43148804 67.19088745 C-67.49406342 68.16515063 -65.5595124 69.14496917 -63.625 70.125 C-62.30357212 70.7907353 -60.98195924 71.45610353 -59.66015625 72.12109375 C-56.43758453 73.74248806 -53.21896696 75.37138131 -50 77 C-50 70.4 -50 63.8 -50 57 C-41.585 60.96 -41.585 60.96 -33 65 C-32.505 75.395 -32.505 75.395 -32 86 C-30.02 86.99 -28.04 87.98 -26 89 C-25.67 79.43 -25.34 69.86 -25 60 C-16.65134741 62.7828842 -8.87118514 67.06440743 -1 71 C-0.67 47.57 -0.34 24.14 0 0 Z " fill="#2F2C2C" transform="translate(125,153)"/>
<path d="M0 0 C0 54.12 0 108.24 0 164 C-30.628125 179.345 -30.628125 179.345 -61.875 195 C-68.33046387 198.23683594 -74.78592773 201.47367188 -81.43701172 204.80859375 C-89.29907227 208.74414063 -89.29907227 208.74414063 -92.97561646 210.58325195 C-95.55317778 211.87296741 -98.12959598 213.16493645 -100.70535278 214.45825195 C-103.98609264 216.10545583 -107.26871242 217.74885204 -110.55275941 219.38945198 C-112.33270182 220.27986213 -114.11066708 221.17422122 -115.88856316 222.06871033 C-116.93248789 222.5892952 -117.97641262 223.10988007 -119.05197144 223.64624023 C-120.42083402 224.33205421 -120.42083402 224.33205421 -121.81735039 225.03172302 C-124 226 -124 226 -126 226 C-126 222.7 -126 219.4 -126 216 C-87.72 196.86 -49.44 177.72 -10 158 C-9.505 81.77 -9.505 81.77 -9 4 C-1 0 -1 0 0 0 Z " fill="#161213" transform="translate(284,68)"/>
<path d="M0 0 C0.556875 0.309375 1.11375 0.61875 1.6875 0.9375 C1.6875 1.5975 1.6875 2.2575 1.6875 2.9375 C-0.2925 3.9275 -2.2725 4.9175 -4.3125 5.9375 C0.34686796 8.40482716 5.01065235 10.86315066 9.68359375 13.3046875 C12.61373709 14.83724226 15.52523663 16.3918693 18.41015625 18.0078125 C19.42980469 18.56210938 20.44945312 19.11640625 21.5 19.6875 C22.37269531 20.17734375 23.24539062 20.6671875 24.14453125 21.171875 C28.42330939 22.46010928 31.44065337 20.5818308 35.25 18.61328125 C36.87833922 17.70255947 38.50334708 16.78585623 40.125 15.86328125 C44.54139024 14.26772563 47.71648596 15.5110571 51.8984375 17.34765625 C53.46464844 18.16556641 53.46464844 18.16556641 55.0625 19 C56.12210937 19.54785156 57.18171875 20.09570312 58.2734375 20.66015625 C59.07007813 21.08167969 59.86671875 21.50320312 60.6875 21.9375 C58.0886345 24.97406917 55.06678272 26.39913739 51.5 28.125 C50.41332031 28.65480469 49.32664062 29.18460938 48.20703125 29.73046875 C47.37558594 30.12878906 46.54414062 30.52710938 45.6875 30.9375 C48.35532433 32.89913554 50.02191062 33.93459772 53.375 33.94921875 C59.07438773 32.20848594 64.15587198 29.16287182 69.34375 26.26757812 C75.84543513 22.82579752 75.84543513 22.82579752 79.75 23.34375 C80.719375 23.8696875 81.68875 24.395625 82.6875 24.9375 C83.36296875 25.28192139 84.0384375 25.62634277 84.734375 25.98120117 C87.86826282 27.5795515 90.97051127 29.23160272 94.0546875 30.92382812 C94.82039063 31.32408203 95.58609375 31.72433594 96.375 32.13671875 C97.05949219 32.50627686 97.74398437 32.87583496 98.44921875 33.2565918 C103.39849007 34.76221109 107.8300304 32.60089212 112.18286133 30.28198242 C113.23447952 29.72858688 114.28609772 29.17519135 115.36958313 28.60502625 C117.05255745 27.70805779 117.05255745 27.70805779 118.76953125 26.79296875 C120.55531255 25.86495213 122.34111613 24.9369757 124.12816143 24.01139545 C128.51986208 21.73573601 132.90403545 19.4470833 137.2668457 17.11645508 C139.72073584 15.80668832 142.18281381 14.51564196 144.65666199 13.24397278 C146.98149977 12.04827655 149.2929958 10.82618709 151.58857727 9.57524109 C159.31247205 5.66162953 159.31247205 5.66162953 163.46273804 6.49429321 C165.70846907 7.48113217 167.6787551 8.53573186 169.6875 9.9375 C165.94601674 13.04082391 161.74998755 15.06838669 157.43408203 17.24121094 C156.60432861 17.66265884 155.7745752 18.08410675 154.91967773 18.51832581 C152.18057379 19.90754603 149.43832121 21.29038202 146.6953125 22.671875 C145.75766933 23.14477211 144.82002617 23.61766922 143.85396957 24.10489655 C138.89576366 26.60482734 133.93497171 29.09954222 128.97216797 31.59033203 C123.84508781 34.16496132 118.72762299 36.75813223 113.61206245 39.35555649 C109.67628813 41.34955815 105.73349473 43.32935565 101.78866196 45.30536652 C99.89852348 46.25531093 98.01109419 47.21066586 96.12646866 48.17150116 C93.49150892 49.51327351 90.84721681 50.83457185 88.19970703 52.15136719 C87.42339935 52.55233109 86.64709167 52.95329498 85.84725952 53.3664093 C81.36454852 55.56489497 78.62526897 56.58128178 73.6875 54.9375 C70.45319837 53.56138797 67.32663365 52.00982983 64.19384766 50.41772461 C63.25662872 49.9494072 62.31940979 49.48108978 61.35379028 48.99858093 C58.26585974 47.45322556 55.18374734 45.89662286 52.1015625 44.33984375 C49.95814416 43.26440332 47.8143708 42.1896702 45.67025757 41.11561584 C40.03445743 38.29008823 34.40352889 35.45498287 28.77355957 32.61785889 C23.02512709 29.72316539 17.27214121 26.83755192 11.51953125 23.95117188 C0.23771224 18.28882794 -11.03913883 12.61666268 -22.3125 6.9375 C-19.62228094 4.10787598 -16.92482774 2.47899505 -13.4375 0.6875 C-12.40882812 0.14609375 -11.38015625 -0.3953125 -10.3203125 -0.953125 C-6.1942389 -2.47494955 -3.88868631 -1.78669371 0 0 Z " fill="#3A3536" transform="translate(72.3125,62.0625)"/>
<path d="M0 0 C1.01794647 0.50622391 2.03589294 1.01244781 3.08468628 1.53401184 C4.18520325 2.09146088 5.28572021 2.64890991 6.41958618 3.22325134 C7.59089081 3.8086116 8.76219543 4.39397186 9.96899414 4.99707031 C13.17050559 6.59725355 16.36699661 8.20723657 19.56266356 9.81905293 C22.90700398 11.50374778 26.25589477 13.17934777 29.60430908 14.85592651 C35.9397148 18.02983905 42.27099855 21.21188481 48.60083449 24.3968882 C55.80927388 28.02348284 63.0222728 31.64096379 70.23566508 35.25769436 C85.06980238 42.69565341 99.89818491 50.14501068 114.72280884 57.60191345 C114.72280884 58.26191345 114.72280884 58.92191345 114.72280884 59.60191345 C109.56471559 62.79501879 109.56471559 62.79501879 106.17959595 62.01858521 C101.33348227 60.03253511 96.7032186 57.6883566 92.03921509 55.31016541 C90.97508392 54.77182068 89.91095276 54.23347595 88.8145752 53.67881775 C86.50898879 52.51219688 84.20425105 51.3438976 81.90026855 50.17411232 C78.25526651 48.32367031 74.60586175 46.48203424 70.95547485 44.64224243 C69.70350104 44.01111249 68.4515327 43.37997169 67.1995697 42.7488203 C66.57288202 42.43289091 65.94619434 42.11696151 65.30051613 41.79145849 C56.80931776 37.50985923 48.32201406 33.22068085 39.84292603 28.91514587 C34.11356057 26.00596151 28.37856761 23.10821435 22.63694286 20.22329682 C19.60195472 18.69773554 16.57021465 17.16637699 13.54534912 15.62082863 C10.17291165 13.90095551 6.79109485 12.20107532 3.40640259 10.50547791 C2.40881927 9.9907341 1.41123596 9.4759903 0.38342285 8.94564819 C-0.54171112 8.4871347 -1.46684509 8.02862122 -2.42001343 7.55621338 C-3.21786758 7.15230031 -4.01572174 6.74838724 -4.8377533 6.33223438 C-9.816647 4.84164906 -14.06180915 6.74340274 -18.5476532 8.93270874 C-19.56415451 9.42448105 -20.58065582 9.91625336 -21.62796021 10.42292786 C-22.72690613 10.96466644 -23.82585205 11.50640503 -24.95809937 12.06455994 C-26.1277977 12.63385727 -27.29749603 13.2031546 -28.50263977 13.78970337 C-32.36695875 15.67225553 -36.22279236 17.57182746 -40.07797241 19.4730072 C-41.4084124 20.12815713 -42.738874 20.78326316 -44.06935692 21.43832588 C-49.60175207 24.16369648 -55.13194711 26.8934463 -60.65633869 29.63500881 C-68.56316049 33.55874242 -76.48180002 37.45597009 -84.41933185 41.31722206 C-90.00726986 44.03807661 -95.5803413 46.78789811 -101.14317006 49.55972153 C-104.46368427 51.21332503 -107.78932277 52.85366227 -111.13134193 54.46342278 C-114.85696871 56.25894249 -118.55002647 58.11346838 -122.24325562 59.97471619 C-123.90685623 60.75999695 -123.90685623 60.75999695 -125.60406494 61.56114197 C-131.13060687 64.23005164 -131.13060687 64.23005164 -134.17357445 69.23950386 C-134.43988967 71.76118982 -134.49554686 74.07900956 -134.27719116 76.60191345 C-137.68031855 75.54316271 -140.29072348 74.59289191 -143.27719116 72.60191345 C-143.57015991 70.21910095 -143.57015991 70.21910095 -143.46469116 67.47691345 C-143.43762085 66.56683533 -143.41055054 65.6567572 -143.38265991 64.71910095 C-143.34785522 64.02042908 -143.31305054 63.3217572 -143.27719116 62.60191345 C-126.1799221 53.95985253 -109.07353336 45.33611364 -91.95607567 36.73410702 C-84.00841593 32.73964873 -76.06385647 28.73924304 -68.12631226 24.72471619 C-61.20822908 21.22581541 -54.28460107 17.73818762 -47.35407221 14.264 C-43.68431126 12.42390322 -40.01758 10.57827159 -36.35743332 8.7191143 C-32.91208045 6.96928326 -29.45950997 5.23462793 -26.00082779 3.51130104 C-24.73304955 2.8763117 -23.46800281 2.23583453 -22.20597839 1.58948517 C-20.48145185 0.70729722 -18.74591743 -0.1532725 -17.00994873 -1.01272583 C-15.55812478 -1.74416856 -15.55812478 -1.74416856 -14.07697105 -2.49038792 C-8.84028028 -4.18814175 -4.73207598 -2.37595848 0 0 Z " fill="#3B3131" transform="translate(159.27719116210938,5.3980865478515625)"/>
<path d="M0 0 C0 3.63 0 7.26 0 11 C-24.42 23.21 -48.84 35.42 -74 48 C-74.0517517 74.80617475 -74.0517517 74.80617475 -74.02758789 101.61230469 C-74.05944824 106.79931641 -74.05944824 106.79931641 -74.08323669 109.22833252 C-74.09323784 110.92312956 -74.08947249 112.61804202 -74.07481384 114.31280518 C-74.05526807 116.88271389 -74.07954042 119.44887057 -74.11352539 122.01855469 C-74.097707 122.77236797 -74.0818886 123.52618126 -74.06559086 124.30283737 C-74.12025452 126.40594482 -74.12025452 126.40594482 -75 130 C-77.58584649 132.30695078 -80.44269985 134 -84 134 C-84 103.64 -84 73.28 -84 42 C-72.43104966 35.91107877 -60.87304647 29.85988162 -49.1796875 24.0234375 C-47.77428493 23.32039777 -46.36894163 22.61723953 -44.96365356 21.91397095 C-42.06902388 20.46593111 -39.17370033 19.0192916 -36.27783203 17.57373047 C-32.56095073 15.71818749 -28.84593071 13.85895024 -25.13139153 11.99872398 C-22.25321909 10.55783979 -19.37410566 9.11884445 -16.49469376 7.680439 C-15.12200685 6.994429 -13.74961665 6.30782498 -12.37752914 5.62061691 C-10.48164738 4.67141551 -8.58451606 3.72476123 -6.68701172 2.77880859 C-5.6095871 2.24049408 -4.53216248 1.70217957 -3.42208862 1.14755249 C-1 0 -1 0 0 0 Z " fill="#373537" transform="translate(242,99)"/>
<path d="M0 0 C0 13.53 0 27.06 0 41 C-14.43471483 48.23741182 -14.43471483 48.23741182 -20.56835938 51.30859375 C-24.7609138 53.40786501 -28.95324249 55.50757906 -33.14428711 57.60986328 C-36.52151042 59.30388997 -39.8996945 60.9959858 -43.27856636 62.6867218 C-44.57036636 63.33354882 -45.86181291 63.98108219 -47.15290642 64.62931824 C-48.95509819 65.5340201 -50.75864286 66.43602546 -52.56225586 67.33789062 C-54.1044706 68.11066345 -54.1044706 68.11066345 -55.67784119 68.89904785 C-58 70 -58 70 -59 70 C-59 66.7 -59 63.4 -59 60 C-56.98493237 58.93231491 -54.9695308 57.86525623 -52.95263672 56.80102539 C-51.22508183 55.88717864 -49.50016063 54.96833675 -47.77783203 54.04467773 C-43.79159468 51.92162955 -39.83901221 49.87359031 -35.65625 48.1640625 C-32.18623288 46.71742583 -28.99907465 45.31746678 -26 43 C-25.04769959 39.95864418 -24.98622944 37.57383021 -25.12109375 34.40234375 C-25.08113281 33.60957031 -25.04117188 32.81679687 -25 32 C-22.15972469 29.88490137 -20.53276772 29 -17 29 C-17 22.07 -17 15.14 -17 8 C-14.380625 6.68 -11.76125 5.36 -9.0625 4 C-7.82318726 3.37351563 -7.82318726 3.37351563 -6.55883789 2.734375 C-5.91164795 2.40953125 -5.26445801 2.0846875 -4.59765625 1.75 C-3.93258057 1.41484375 -3.26750488 1.0796875 -2.58227539 0.734375 C-1 0 -1 0 0 0 Z " fill="#1F1A1A" transform="translate(267,179)"/>
<path d="M0 0 C2.375 1.5625 2.375 1.5625 4 3 C-0.75 6 -0.75 6 -3 6 C-3 6.66 -3 7.32 -3 8 C-2.030625 8.28875 -1.06125 8.5775 -0.0625 8.875 C3 10 3 10 4 12 C-3.425 15.96 -3.425 15.96 -11 20 C-9.02 20.99 -7.04 21.98 -5 23 C-5 23.66 -5 24.32 -5 25 C-7.5 26.625 -7.5 26.625 -10 28 C-9.175 28.45375 -8.35 28.9075 -7.5 29.375 C-6.675 29.91125 -5.85 30.4475 -5 31 C-5 31.66 -5 32.32 -5 33 C-8.52826998 34.88052045 -12.07440895 36.72452065 -15.625 38.5625 C-17.12353516 39.36204102 -17.12353516 39.36204102 -18.65234375 40.17773438 C-19.62558594 40.67724609 -20.59882813 41.17675781 -21.6015625 41.69140625 C-22.49182129 42.15748291 -23.38208008 42.62355957 -24.29931641 43.10375977 C-28.75751515 44.58324337 -32.02004495 43.43036955 -36.2109375 41.58984375 C-37.77714844 40.77193359 -37.77714844 40.77193359 -39.375 39.9375 C-40.43460937 39.38964844 -41.49421875 38.84179688 -42.5859375 38.27734375 C-43.38257812 37.85582031 -44.17921875 37.43429688 -45 37 C-43.06745228 34.9754262 -41.36841312 33.57894208 -39 32 C-40.98 31.01 -42.96 30.02 -45 29 C-45 28.34 -45 27.68 -45 27 C-39.62738159 24.28902487 -34.25218884 21.58325071 -28.87451172 18.88232422 C-27.04436161 17.96221146 -25.21493114 17.0406659 -23.38623047 16.11767578 C-20.76195849 14.79344965 -18.13516608 13.4743492 -15.5078125 12.15625 C-14.68693146 11.74064819 -13.86605042 11.32504639 -13.02029419 10.89685059 C-12.25965668 10.5164563 -11.49901917 10.13606201 -10.71533203 9.74414062 C-10.04470734 9.40660767 -9.37408264 9.06907471 -8.68313599 8.72131348 C-7 8 -7 8 -5 8 C-5 7.34 -5 6.68 -5 6 C-6.4540625 5.566875 -6.4540625 5.566875 -7.9375 5.125 C-11 4 -11 4 -12 2 C-7.55319411 -0.64690827 -5.01614931 -1.52665414 0 0 Z " fill="#413E41" transform="translate(154,11)"/>
<path d="M0 0 C4.52152796 1.39386579 8.69329644 3.2058629 12.9074707 5.33227539 C13.56998337 5.66258255 14.23249603 5.99288971 14.91508484 6.33320618 C17.08728661 7.4174663 19.25657029 8.50742655 21.42578125 9.59765625 C22.93924093 10.35498254 24.45284894 11.11201246 25.96659851 11.86875916 C29.12912572 13.4508028 32.29029537 15.035516 35.45043945 16.62231445 C39.50837245 18.65980752 43.56894436 20.69197303 47.63044453 22.7223444 C50.75123661 24.28287608 53.87098393 25.84548634 56.99037743 27.40881157 C58.48811941 28.15927682 59.9861064 28.90925331 61.48433876 29.65873909 C63.57041006 30.70285372 65.65514531 31.74958668 67.73950195 32.79711914 C68.36233063 33.10830688 68.9851593 33.41949463 69.62686157 33.7401123 C73.88551773 35.88551773 73.88551773 35.88551773 75 37 C75.07205511 38.68608966 75.08386068 40.37500659 75.0625 42.0625 C75.05347656 42.98160156 75.04445313 43.90070313 75.03515625 44.84765625 C75.02355469 45.55792969 75.01195313 46.26820313 75 47 C70.47847204 45.60613421 66.30670356 43.7941371 62.0925293 41.66772461 C61.43001663 41.33741745 60.76750397 41.00711029 60.08491516 40.66679382 C57.91271339 39.5825337 55.74342971 38.49257345 53.57421875 37.40234375 C52.06075907 36.64501746 50.54715106 35.88798754 49.03340149 35.13124084 C45.87087428 33.5491972 42.70970463 31.964484 39.54956055 30.37768555 C35.49162755 28.34019248 31.43105564 26.30802697 27.36955547 24.2776556 C24.24876339 22.71712392 21.12901607 21.15451366 18.00962257 19.59118843 C16.51188059 18.84072318 15.0138936 18.09074669 13.51566124 17.34126091 C11.42958994 16.29714628 9.34485469 15.25041332 7.26049805 14.20288086 C6.63766937 13.89169312 6.0148407 13.58050537 5.37313843 13.2598877 C1.11448227 11.11448227 1.11448227 11.11448227 0 10 C-0.07205511 8.31391034 -0.08386068 6.62499341 -0.0625 4.9375 C-0.05347656 4.01839844 -0.04445312 3.09929687 -0.03515625 2.15234375 C-0.02355469 1.44207031 -0.01195312 0.73179688 0 0 Z " fill="#484648" transform="translate(33,87)"/>
<path d="M0 0 C0.556875 0.309375 1.11375 0.61875 1.6875 0.9375 C1.6875 1.5975 1.6875 2.2575 1.6875 2.9375 C-0.2925 3.9275 -2.2725 4.9175 -4.3125 5.9375 C0.34686796 8.40482716 5.01065235 10.86315066 9.68359375 13.3046875 C12.61373709 14.83724226 15.52523663 16.3918693 18.41015625 18.0078125 C19.42980469 18.56210938 20.44945312 19.11640625 21.5 19.6875 C22.37269531 20.17734375 23.24539062 20.6671875 24.14453125 21.171875 C28.42330939 22.46010928 31.44065337 20.5818308 35.25 18.61328125 C36.87833922 17.70255947 38.50334708 16.78585623 40.125 15.86328125 C44.54139024 14.26772563 47.71648596 15.5110571 51.8984375 17.34765625 C53.46464844 18.16556641 53.46464844 18.16556641 55.0625 19 C56.12210937 19.54785156 57.18171875 20.09570312 58.2734375 20.66015625 C59.07007813 21.08167969 59.86671875 21.50320312 60.6875 21.9375 C58.13361107 24.8612625 55.24640464 26.42344924 51.8125 28.1875 C50.78382812 28.72890625 49.75515625 29.2703125 48.6953125 29.828125 C44.30457823 31.44756465 41.9296165 30.46606021 37.75 28.6875 C33.71098775 27.69835414 32.26926471 29.032306 28.6875 30.9375 C25.04515998 30.53527168 22.14973618 29.35234634 18.8972168 27.71264648 C17.97663986 27.25224472 17.05606293 26.79184296 16.10758972 26.31748962 C15.1272023 25.81955399 14.14681488 25.32161835 13.13671875 24.80859375 C12.12277542 24.29949966 11.10883209 23.79040558 10.06416321 23.2658844 C6.83157905 21.6412071 3.60327144 20.00822726 0.375 18.375 C-1.81808255 17.27093432 -4.01143881 16.16741216 -6.20507812 15.06445312 C-11.57740891 12.36176382 -16.94625395 9.6522488 -22.3125 6.9375 C-19.62228094 4.10787598 -16.92482774 2.47899505 -13.4375 0.6875 C-12.40882812 0.14609375 -11.38015625 -0.3953125 -10.3203125 -0.953125 C-6.1942389 -2.47494955 -3.88868631 -1.78669371 0 0 Z " fill="#3A3739" transform="translate(72.3125,62.0625)"/>
<path d="M0 0 C4.4748383 1.38097659 8.53202474 3.14918679 12.7109375 5.2578125 C13.32393707 5.56572723 13.93693665 5.87364197 14.56851196 6.19088745 C16.50593658 7.16515063 18.4404876 8.14496917 20.375 9.125 C21.69642788 9.7907353 23.01804076 10.45610353 24.33984375 11.12109375 C27.56204525 12.74315823 30.78169593 14.37021374 34 16 C34 12.7 34 9.4 34 6 C36.31 6.99 38.62 7.98 41 9 C41.33 6.03 41.66 3.06 42 0 C44.64 1.32 47.28 2.64 50 4 C50 13.9 50 23.8 50 34 C46.094009 32.698003 42.87121178 31.55951113 39.27978516 29.75341797 C38.39932526 29.31311249 37.51886536 28.87280701 36.61172485 28.41915894 C35.68024628 27.94825836 34.7487677 27.47735779 33.7890625 26.9921875 C32.82092621 26.50670441 31.85278992 26.02122131 30.85531616 25.52102661 C27.77663915 23.97610983 24.70079749 22.42564044 21.625 20.875 C19.53273696 19.82385068 17.44029104 18.7730653 15.34765625 17.72265625 C10.22964241 15.15264914 5.1141635 12.57765997 0 10 C0 6.7 0 3.4 0 0 Z " fill="#262021" transform="translate(83,235)"/>
<path d="M0 0 C3.96 1.98 3.96 1.98 8 4 C8 31.06 8 58.12 8 86 C5.36 84.68 2.72 83.36 0 82 C0 54.94 0 27.88 0 0 Z " fill="#484648" transform="translate(25,93)"/>
<path d="M0 0 C1.09707275 0.59514404 2.19414551 1.19028809 3.32446289 1.8034668 C4.54837838 2.44996442 5.7730104 3.09510706 6.99829102 3.73901367 C8.90558276 4.74519558 10.80731346 5.75827429 12.69824219 6.79492188 C14.54096764 7.80132429 16.39869694 8.77324837 18.26196289 9.7409668 C19.36016357 10.33047119 20.45836426 10.91997559 21.58984375 11.52734375 C25.95777404 12.7467637 27.90225146 11.43755704 31.85961914 9.44018555 C35.18035838 9.6394299 37.39069144 10.2057217 40.35961914 11.69018555 C43.96023003 12.77036881 45.59554214 11.10553096 48.85961914 9.44018555 C53.26630269 9.61645289 55.47409771 10.75211059 58.85961914 13.44018555 C55.77664502 15.06586772 52.69317725 16.69061139 49.60961914 18.31518555 C48.73692383 18.77538086 47.86422852 19.23557617 46.96508789 19.7097168 C46.12075195 20.15444336 45.27641602 20.59916992 44.40649414 21.05737305 C43.63144531 21.46584473 42.85639648 21.87431641 42.05786133 22.29516602 C40.96973145 22.86195068 40.96973145 22.86195068 39.85961914 23.44018555 C39.22958984 23.83995605 38.59956055 24.23972656 37.95043945 24.65161133 C34.15779134 26.08204727 31.1856394 25.00939484 27.55328369 23.45016479 C24.74754093 22.11632114 21.97804411 20.72399721 19.21118164 19.3112793 C18.19865326 18.80218521 17.18612488 18.29309113 16.14291382 17.76856995 C12.91963977 16.14576552 9.70211786 14.51190577 6.48461914 12.87768555 C4.29618748 11.7734355 2.10738938 10.66991136 -0.08178711 9.56713867 C-5.43892759 6.86655371 -10.79139224 4.15687774 -16.14038086 1.44018555 C-10.3827526 -4.44719209 -7.31413521 -3.63290133 0 0 Z " fill="#2E2728" transform="translate(116.140380859375,92.559814453125)"/>
<path d="M0 0 C2.37059869 1.04644974 4.66775066 2.12873901 6.97753906 3.29467773 C7.65941284 3.63298615 8.34128662 3.97129456 9.04382324 4.31985474 C11.28747204 5.4350991 13.52663803 6.55902307 15.765625 7.68359375 C17.32532512 8.46243321 18.88520321 9.24091634 20.44525146 10.01905823 C23.70863133 11.64853946 26.96980639 13.28233156 30.22949219 14.91918945 C34.41432907 17.02017335 38.60448195 19.11029521 42.7963295 21.19724941 C46.01544119 22.80139553 49.23168323 24.411226 52.44707489 26.0228138 C53.99161367 26.7960857 55.53705 27.56756746 57.08338165 28.33724785 C59.23855275 29.4110393 61.38974692 30.49240665 63.54003906 31.57592773 C64.18314026 31.89444199 64.82624146 32.21295624 65.48883057 32.54112244 C69.88573305 34.77146611 69.88573305 34.77146611 71 37 C66.41574635 39.72872241 64.15342005 40.2715129 59 39 C56.56456782 37.95563218 54.24575868 36.87665633 51.89306641 35.67358398 C51.20944031 35.33206299 50.52581421 34.99054199 49.82147217 34.63867188 C47.57762236 33.51536096 45.33964507 32.3808456 43.1015625 31.24609375 C41.5410715 30.46211553 39.98022421 29.67884613 38.41903687 28.89625549 C34.32199806 26.84012007 30.22985672 24.77441838 26.13867188 22.70666504 C21.95865293 20.59615334 17.77405859 18.49475529 13.58984375 16.39257812 C5.38873389 12.27060913 -2.80722932 8.13851615 -11 4 C-11 3.34 -11 2.68 -11 2 C-6.75222663 -0.46963568 -4.71736818 -1.3755254 0 0 Z " fill="#585558" transform="translate(162,15)"/>
<path d="M0 0 C1.15798096 0.55324951 1.15798096 0.55324951 2.33935547 1.11767578 C5.03637689 2.41921844 7.7065048 3.76600887 10.375 5.125 C11.30183594 5.59292969 12.22867188 6.06085938 13.18359375 6.54296875 C15.45759406 7.69169056 17.72963282 8.84411881 20 10 C17.702779 11.74271938 15.40133271 13.39911152 13 15 C14.98 15.99 16.96 16.98 19 18 C19 18.66 19 19.32 19 20 C15.47173002 21.88052045 11.92559105 23.72452065 8.375 25.5625 C6.87646484 26.36204102 6.87646484 26.36204102 5.34765625 27.17773438 C4.37441406 27.67724609 3.40117187 28.17675781 2.3984375 28.69140625 C1.50817871 29.15748291 0.61791992 29.62355957 -0.29931641 30.10375977 C-3.67103468 31.22268743 -5.60135005 30.97059517 -9 30 C-10.32 29.01 -11.64 28.02 -13 27 C-8.05 24.36 -3.1 21.72 2 19 C0.67484375 18.31292969 -0.6503125 17.62585938 -2.015625 16.91796875 C-3.76051426 16.00799962 -5.50530056 15.09783302 -7.25 14.1875 C-8.12269531 13.73568359 -8.99539062 13.28386719 -9.89453125 12.81835938 C-10.73886719 12.37685547 -11.58320312 11.93535156 -12.453125 11.48046875 C-13.61569824 10.87561646 -13.61569824 10.87561646 -14.80175781 10.25854492 C-17.01613724 8.99076105 -18.99359345 7.57275095 -21 6 C-18.63720346 4.59915625 -16.26368775 3.23037901 -13.875 1.875 C-13.20984375 1.47667969 -12.5446875 1.07835938 -11.859375 0.66796875 C-7.17955089 -1.94722708 -5.02578903 -2.48801437 0 0 Z " fill="#423F42" transform="translate(130,66)"/>
<path d="M0 0 C0.556875 0.309375 1.11375 0.61875 1.6875 0.9375 C1.6875 1.5975 1.6875 2.2575 1.6875 2.9375 C-6.54393203 7.14594618 -14.78392132 11.33699091 -23.03531837 15.50615788 C-26.86662531 17.44267535 -30.69473156 19.38502443 -34.51611328 21.34106445 C-38.20492775 23.22897179 -41.90136798 25.10108003 -45.6035881 26.96255302 C-47.01378861 27.67503718 -48.42116319 28.39314363 -49.8255806 29.11696053 C-51.79528685 30.13090355 -53.77414962 31.12427856 -55.75634766 32.11352539 C-57.44179184 32.96957115 -57.44179184 32.96957115 -59.1612854 33.84291077 C-62.75777205 35.09216734 -64.68118132 34.9639815 -68.3125 33.9375 C-70.6875 32.375 -70.6875 32.375 -72.3125 30.9375 C-59.1054715 23.93347819 -45.84497403 17.04031794 -32.50048828 10.30151367 C-30.4306027 9.25304222 -28.36360627 8.1988504 -26.29931641 7.1394043 C-23.27122936 5.58607186 -20.23452683 4.05095321 -17.1953125 2.51953125 C-16.27452911 2.04264359 -15.35374573 1.56575592 -14.40505981 1.07441711 C-13.54580902 0.6461412 -12.68655823 0.2178653 -11.80126953 -0.22338867 C-11.05249542 -0.60403976 -10.30372131 -0.98469086 -9.53225708 -1.37687683 C-5.97083488 -2.47690422 -3.30173117 -1.51701162 0 0 Z " fill="#585558" transform="translate(147.3125,16.0625)"/>
<path d="M0 0 C4.10832666 1.07292424 4.10832666 1.07292424 8 0 C10.95936046 -1.47968023 12.86760134 -0.84835797 16 0 C18.375 1.5625 18.375 1.5625 20 3 C18.02 4.32 16.04 5.64 14 7 C15.98 7.99 17.96 8.98 20 10 C20 10.66 20 11.32 20 12 C17.80087504 13.20801248 15.59338181 14.39081947 13.375 15.5625 C12.44880859 16.07586914 12.44880859 16.07586914 11.50390625 16.59960938 C8.66494373 18.07885827 6.40556301 18.99549374 3.1875 19.03125 C-1.58555763 17.48702547 -5.92895016 15.24297663 -10.375 12.9375 C-11.30183594 12.46505859 -12.22867188 11.99261719 -13.18359375 11.50585938 C-15.45953591 10.34442498 -17.73138773 9.17566933 -20 8 C-20 7.34 -20 6.68 -20 6 C-17.80087504 4.79198752 -15.59338181 3.60918053 -13.375 2.4375 C-12.75753906 2.09525391 -12.14007813 1.75300781 -11.50390625 1.40039062 C-7.21004293 -0.83693816 -4.65364491 -1.28972445 0 0 Z " fill="#434043" transform="translate(171,78)"/>
<path d="M0 0 C0.61299957 0.30791473 1.22599915 0.61582947 1.85757446 0.93307495 C3.79499908 1.90733813 5.7295501 2.88715667 7.6640625 3.8671875 C8.98549038 4.5329228 10.30710326 5.19829103 11.62890625 5.86328125 C14.85110775 7.48534573 18.07075843 9.11240124 21.2890625 10.7421875 C18.74361605 13.85328871 16.19831882 14.92933614 12.2890625 15.7421875 C9.40478516 14.86767578 9.40478516 14.86767578 6.453125 13.3125 C5.38964844 12.76464844 4.32617188 12.21679688 3.23046875 11.65234375 C2.13605469 11.06324219 1.04164062 10.47414063 -0.0859375 9.8671875 C-1.76236328 8.99513672 -1.76236328 8.99513672 -3.47265625 8.10546875 C-6.22860757 6.66860524 -8.9735077 5.21394441 -11.7109375 3.7421875 C-11.7109375 6.7121875 -11.7109375 9.6821875 -11.7109375 12.7421875 C-17.4609375 10.8671875 -17.4609375 10.8671875 -19.7109375 9.7421875 C-19.7109375 13.0421875 -19.7109375 16.3421875 -19.7109375 19.7421875 C-24.1659375 17.7621875 -24.1659375 17.7621875 -28.7109375 15.7421875 C-28.7109375 12.1121875 -28.7109375 8.4821875 -28.7109375 4.7421875 C-24.2559375 6.7221875 -24.2559375 6.7221875 -19.7109375 8.7421875 C-19.7109375 5.4421875 -19.7109375 2.1421875 -19.7109375 -1.2578125 C-11.91278904 -6.56055345 -8.25766319 -4.16671079 0 0 Z " fill="#241E1F" transform="translate(44.7109375,73.2578125)"/>
<path d="M0 0 C6 2 6 2 9 4 C9.36076355 5.79702759 9.36076355 5.79702759 9.34057617 7.99072266 C9.34034958 8.81142242 9.34012299 9.63212219 9.33988953 10.47769165 C9.32440567 11.36419403 9.30892181 12.25069641 9.29296875 13.1640625 C9.28872391 14.07127045 9.28447906 14.97847839 9.28010559 15.91317749 C9.26328133 18.81741732 9.2256226 21.7209691 9.1875 24.625 C9.17245799 26.59113583 9.15876875 28.55728251 9.14648438 30.5234375 C9.11336557 35.34922439 9.06155786 40.17449545 9 45 C4.545 43.02 4.545 43.02 0 41 C0 27.47 0 13.94 0 0 Z " fill="#272122" transform="translate(16,191)"/>
<path d="M0 0 C2.375 1.5625 2.375 1.5625 4 3 C3.03586182 3.43231934 2.07172363 3.86463867 1.07836914 4.31005859 C-2.50565736 5.92966678 -6.06398818 7.60007496 -9.61694336 9.28662109 C-11.15569415 10.00832031 -12.70100149 10.71621262 -14.25268555 11.40966797 C-23.19998786 14.94981139 -23.19998786 14.94981139 -29.22705078 21.77050781 C-29.48302902 24.33029024 -29.46343917 26.47577734 -29 29 C-32.40312738 27.94124926 -35.01353231 26.99097846 -38 25 C-38.29296875 22.6171875 -38.29296875 22.6171875 -38.1875 19.875 C-38.16042969 18.96492188 -38.13335937 18.05484375 -38.10546875 17.1171875 C-38.07066406 16.41851562 -38.03585938 15.71984375 -38 15 C-33.56295342 12.68238445 -29.11567383 10.38626286 -24.65771484 8.10913086 C-23.14366894 7.33202858 -21.6325482 6.54919884 -20.12451172 5.76049805 C-17.9524868 4.62580474 -15.77067059 3.51232987 -13.5859375 2.40234375 C-12.91694427 2.047202 -12.24795105 1.69206024 -11.5586853 1.32615662 C-7.28698958 -0.81170712 -4.58127528 -1.48559032 0 0 Z " fill="#302828" transform="translate(54,53)"/>
<path d="M0 0 C0 3.3 0 6.6 0 10 C1.423125 9.2575 1.423125 9.2575 2.875 8.5 C6 7 6 7 8 7 C8 10.3 8 13.6 8 17 C5.71070947 18.17154293 3.41881638 19.33738074 1.125 20.5 C0.47402344 20.83386719 -0.17695313 21.16773438 -0.84765625 21.51171875 C-5.7734375 24 -5.7734375 24 -8 24 C-8 17.4 -8 10.8 -8 4 C-1 0 -1 0 0 0 Z " fill="#242122" transform="translate(175,245)"/>
<path d="M0 0 C0.73686035 0.36843018 1.4737207 0.73686035 2.23291016 1.11645508 C3.05017578 1.51541992 3.86744141 1.91438477 4.70947266 2.32543945 C5.55509766 2.75791992 6.40072266 3.19040039 7.27197266 3.63598633 C8.10986328 4.04913086 8.94775391 4.46227539 9.81103516 4.88793945 C12.18088743 6.05982395 14.53987365 7.25120491 16.89697266 8.44848633 C18.09700946 9.04971383 19.29745063 9.65013587 20.49853516 10.24926758 C21.29001953 10.64500977 22.08150391 11.04075195 22.89697266 11.44848633 C20.34219697 14.57098994 17.7940629 15.55258331 13.89697266 16.44848633 C11.01269531 15.57397461 11.01269531 15.57397461 8.06103516 14.01879883 C6.99755859 13.47094727 5.93408203 12.9230957 4.83837891 12.35864258 C3.74396484 11.76954102 2.64955078 11.18043945 1.52197266 10.57348633 C0.40435547 9.99211914 -0.71326172 9.41075195 -1.86474609 8.81176758 C-4.62069741 7.37490407 -7.36559754 5.92024324 -10.10302734 4.44848633 C-3.32989868 -0.87325762 -3.32989868 -0.87325762 0 0 Z " fill="#231D1E" transform="translate(85.10302734375,93.551513671875)"/>
<path d="M0 0 C2.29982654 1.3327741 3.74634113 2.58154037 5.5546875 4.48046875 C1.77117199 6.61993267 -2.04995773 8.68090952 -5.8828125 10.73046875 C-6.95208984 11.33632812 -8.02136719 11.9421875 -9.12304688 12.56640625 C-17.06515606 16.74390711 -17.06515606 16.74390711 -21.23876953 15.94726562 C-23.47853298 14.9518152 -25.44506746 13.89135302 -27.4453125 12.48046875 C-23.1161579 9.09712291 -18.43976564 6.67998823 -13.5703125 4.16796875 C-12.68472656 3.68779297 -11.79914063 3.20761719 -10.88671875 2.71289062 C-4.33071711 -0.65304464 -4.33071711 -0.65304464 0 0 Z " fill="#423F42" transform="translate(227.4453125,64.51953125)"/>
<path d="M0 0 C1.04414063 0.54527344 2.08828125 1.09054688 3.1640625 1.65234375 C4.22367188 2.20019531 5.28328125 2.74804688 6.375 3.3125 C7.17164063 3.73402344 7.96828125 4.15554687 8.7890625 4.58984375 C6.26392741 7.22413453 4.42246099 8.74486736 0.7890625 9.58984375 C-1.21941115 8.60697367 -3.21913341 7.60607033 -5.2109375 6.58984375 C-8.5294379 6.79301724 -10.7227753 7.32698718 -13.6484375 8.90234375 C-16.75591704 9.73605777 -17.31622295 9.26415328 -20.0234375 7.71484375 C-21.0753125 7.01359375 -22.1271875 6.31234375 -23.2109375 5.58984375 C-20.37778647 3.37032451 -17.51674787 1.52438507 -14.3359375 -0.16015625 C-13.51351562 -0.60875 -12.69109375 -1.05734375 -11.84375 -1.51953125 C-7.37414366 -3.03150491 -4.21621316 -1.85164593 0 0 Z " fill="#302829" transform="translate(157.2109375,4.41015625)"/>
<path d="M0 0 C0 6.93 0 13.86 0 21 C-2.97 22.32 -5.94 23.64 -9 25 C-9 18.07 -9 11.14 -9 4 C-1 0 -1 0 0 0 Z " fill="#1E191A" transform="translate(284,150)"/>
<path d="M0 0 C0 3.3 0 6.6 0 10 C-2.45570175 11.33838733 -4.91429916 12.67086232 -7.375 14 C-8.07367188 14.3815625 -8.77234375 14.763125 -9.4921875 15.15625 C-14.7734375 18 -14.7734375 18 -17 18 C-17 14.7 -17 11.4 -17 8 C-14.54429825 6.66161267 -12.08570084 5.32913768 -9.625 4 C-8.92632812 3.6184375 -8.22765625 3.236875 -7.5078125 2.84375 C-2.2265625 0 -2.2265625 0 0 0 Z " fill="#373537" transform="translate(267,87)"/>
<path d="M0 0 C6.16356805 1.6658292 11.48259656 4.87805286 17 8 C17 11.3 17 14.6 17 18 C11.39 15.36 5.78 12.72 0 10 C0 6.7 0 3.4 0 0 Z " fill="#272122" transform="translate(100,264)"/>
<path d="M0 0 C6.16356805 1.6658292 11.48259656 4.87805286 17 8 C17 11.3 17 14.6 17 18 C11.39 15.36 5.78 12.72 0 10 C0 6.7 0 3.4 0 0 Z " fill="#272122" transform="translate(58,243)"/>
<path d="M0 0 C5.70707682 1.65204855 10.7325152 4.29507537 16 7 C16 10.63 16 14.26 16 18 C10.72 15.36 5.44 12.72 0 10 C0 6.7 0 3.4 0 0 Z " fill="#484648" transform="translate(117,129)"/>
<path d="M0 0 C0.23329086 3.22793797 0.37467674 6.45371232 0.5 9.6875 C0.56703125 10.59951172 0.6340625 11.51152344 0.703125 12.45117188 C0.74179687 13.78051758 0.74179687 13.78051758 0.78125 15.13671875 C0.8440918 16.35427856 0.8440918 16.35427856 0.90820312 17.59643555 C0 20 0 20 -8 25 C-8 17.74 -8 10.48 -8 3 C-2 0 -2 0 0 0 Z " fill="#241E1E" transform="translate(267,118)"/>
<path d="M0 0 C6 2 6 2 8 3 C8 9.93 8 16.86 8 24 C5.36 22.68 2.72 21.36 0 20 C0 13.4 0 6.8 0 0 Z " fill="#1D1819" transform="translate(142,193)"/>
<path d="M0 0 C0 3.3 0 6.6 0 10 C-2.28929053 11.17154293 -4.58118362 12.33738074 -6.875 13.5 C-7.52597656 13.83386719 -8.17695313 14.16773438 -8.84765625 14.51171875 C-13.7734375 17 -13.7734375 17 -16 17 C-16 13.7 -16 10.4 -16 7 C-13.71070947 5.82845707 -11.41881638 4.66261926 -9.125 3.5 C-8.47402344 3.16613281 -7.82304687 2.83226562 -7.15234375 2.48828125 C-2.2265625 0 -2.2265625 0 0 0 Z " fill="#1E191A" transform="translate(208,260)"/>
<path d="M0 0 C0 3.3 0 6.6 0 10 C-2.28929053 11.17154293 -4.58118362 12.33738074 -6.875 13.5 C-7.52597656 13.83386719 -8.17695313 14.16773438 -8.84765625 14.51171875 C-13.7734375 17 -13.7734375 17 -16 17 C-16 13.7 -16 10.4 -16 7 C-13.71070947 5.82845707 -11.41881638 4.66261926 -9.125 3.5 C-8.47402344 3.16613281 -7.82304687 2.83226562 -7.15234375 2.48828125 C-2.2265625 0 -2.2265625 0 0 0 Z " fill="#1E191A" transform="translate(250,239)"/>
<path d="M0 0 C5.68502535 1.64566523 10.76681636 4.29032784 16 7 C16 10.3 16 13.6 16 17 C10.31497465 15.35433477 5.23318364 12.70967216 0 10 C0 6.7 0 3.4 0 0 Z " fill="#302828" transform="translate(117,119)"/>
<path d="M0 0 C2.09375 1.34375 2.09375 1.34375 3.5 2.5 C0.37569945 4.97402747 -2.85900763 6.93819873 -6.375 8.8125 C-7.38304687 9.36550781 -8.39109375 9.91851562 -9.4296875 10.48828125 C-13.28554374 11.75884966 -14.88909115 11.24510498 -18.5 9.5 C-19.52738755 8.52815905 -20.53358501 7.53249313 -21.5 6.5 C-5.89902634 -2.7648727 -5.89902634 -2.7648727 0 0 Z " fill="#302829" transform="translate(213.5,98.5)"/>
<path d="M0 0 C2.15849727 0.94795318 4.28530553 1.97121511 6.375 3.0625 C7.43460938 3.61035156 8.49421875 4.15820312 9.5859375 4.72265625 C10.38257813 5.14417969 11.17921875 5.56570312 12 6 C12 6.66 12 7.32 12 8 C6.73595775 11.06048968 6.73595775 11.06048968 3.71875 10.8125 C0.25562536 9.77754321 -2.65481928 8.19176707 -5.8125 6.4375 C-6.40998047 6.10814453 -7.00746094 5.77878906 -7.62304688 5.43945312 C-9.08533998 4.63226733 -10.5431399 3.81695083 -12 3 C-7.43855403 -0.49710858 -5.75682123 -1.32585501 0 0 Z " fill="#585558" transform="translate(246,57)"/>
<path d="M0 0 C2.375 1.5625 2.375 1.5625 4 3 C-0.75 6 -0.75 6 -3 6 C-3 6.66 -3 7.32 -3 8 C-1.5459375 8.433125 -1.5459375 8.433125 -0.0625 8.875 C3 10 3 10 4 12 C0.7482462 13.93556774 -1.29737629 15.02810495 -5.125 14.875 C-8.01496371 13.99544583 -9.75287291 12.98784319 -12 11 C-7.25 8 -7.25 8 -5 8 C-5 7.34 -5 6.68 -5 6 C-5.969375 5.71125 -6.93875 5.4225 -7.9375 5.125 C-11 4 -11 4 -12 2 C-7.55319411 -0.64690827 -5.01614931 -1.52665414 0 0 Z " fill="#585558" transform="translate(179,57)"/>
<path d="M0 0 C2.375 1.5625 2.375 1.5625 4 3 C2.02 4.32 0.04 5.64 -2 7 C-0.02 7.99 1.96 8.98 4 10 C4 10.66 4 11.32 4 12 C-1.2519084 15.05343511 -1.2519084 15.05343511 -4.625 14.8125 C-6.87974171 14.04114099 -8.91813812 13.15658993 -11 12 C-11 11.34 -11 10.68 -11 10 C-9.02 9.01 -7.04 8.02 -5 7 C-8.465 5.02 -8.465 5.02 -12 3 C-7.47466967 -0.46941992 -5.72278032 -1.37346728 0 0 Z " fill="#474447" transform="translate(137,28)"/>
<path d="M0 0 C0 3.63 0 7.26 0 11 C-2.97 12.32 -5.94 13.64 -9 15 C-9 11.37 -9 7.74 -9 4 C-1.125 0 -1.125 0 0 0 Z " fill="#373537" transform="translate(192,206)"/>
<path d="M0 0 C0 3.63 0 7.26 0 11 C-2.97 12.32 -5.94 13.64 -9 15 C-9 11.37 -9 7.74 -9 4 C-1.125 0 -1.125 0 0 0 Z " fill="#1E191A" transform="translate(284,119)"/>
<path d="M0 0 C3.40312738 1.05875074 6.01353231 2.00902154 9 4 C9.29296875 6.3828125 9.29296875 6.3828125 9.1875 9.125 C9.16042969 10.03507813 9.13335937 10.94515625 9.10546875 11.8828125 C9.07066406 12.58148438 9.03585938 13.28015625 9 14 C5.59687262 12.94124926 2.98646769 11.99097846 0 10 C-0.29296875 7.6171875 -0.29296875 7.6171875 -0.1875 4.875 C-0.16042969 3.96492187 -0.13335937 3.05484375 -0.10546875 2.1171875 C-0.07066406 1.41851562 -0.03585938 0.71984375 0 0 Z " fill="#484648" transform="translate(83,153)"/>
<path d="M0 0 C0 3.3 0 6.6 0 10 C-6.75 14 -6.75 14 -9 14 C-9 10.7 -9 7.4 -9 4 C-2.25 0 -2.25 0 0 0 Z " fill="#2C2A2C" transform="translate(167,137)"/>
<path d="M0 0 C0 3.3 0 6.6 0 10 C-6.75 14 -6.75 14 -9 14 C-9 10.7 -9 7.4 -9 4 C-1.125 0 -1.125 0 0 0 Z " fill="#373537" transform="translate(167,239)"/>
<path d="M0 0 C0 3.3 0 6.6 0 10 C-6.75 14 -6.75 14 -9 14 C-9 10.7 -9 7.4 -9 4 C-1.125 0 -1.125 0 0 0 Z " fill="#1E191A" transform="translate(284,201)"/>
<path d="M0 0 C3.40312738 1.05875074 6.01353231 2.00902154 9 4 C9.41394695 7.36676852 9.13087567 10.59723255 9 14 C4.545 12.02 4.545 12.02 0 10 C0 6.7 0 3.4 0 0 Z " fill="#272122" transform="translate(16,171)"/>
<path d="M0 0 C0 3.3 0 6.6 0 10 C-2.97 11.32 -5.94 12.64 -9 14 C-9 10.7 -9 7.4 -9 4 C-2.25 0 -2.25 0 0 0 Z " fill="#373537" transform="translate(234,155)"/>
<path d="M0 0 C4.455 1.98 4.455 1.98 9 4 C9 7.3 9 10.6 9 14 C5.59687262 12.94124926 2.98646769 11.99097846 0 10 C-0.41394695 6.63323148 -0.13087567 3.40276745 0 0 Z " fill="#272122" transform="translate(108,114)"/>
<path d="M0 0 C0 3.3 0 6.6 0 10 C-3.96 11.98 -3.96 11.98 -8 14 C-8 10.37 -8 6.74 -8 3 C-2.25 0 -2.25 0 0 0 Z " fill="#241E1E" transform="translate(250,208)"/>
<path d="M0 0 C3.96 1.98 3.96 1.98 8 4 C8 7.3 8 10.6 8 14 C2.25 12.125 2.25 12.125 0 11 C0 7.37 0 3.74 0 0 Z " fill="#484648" transform="translate(50,177)"/>
<path d="M0 0 C5.75 1.875 5.75 1.875 8 3 C8 6.63 8 10.26 8 14 C5.36 12.68 2.72 11.36 0 10 C0 6.7 0 3.4 0 0 Z " fill="#2F2E2F" transform="translate(50,157)"/>
<path d="M0 0 C0 3.3 0 6.6 0 10 C-3.96 11.98 -3.96 11.98 -8 14 C-8 10.37 -8 6.74 -8 3 C-2.25 0 -2.25 0 0 0 Z " fill="#373537" transform="translate(225,149)"/>
<path d="M0 0 C5.75 1.875 5.75 1.875 8 3 C8 6.63 8 10.26 8 14 C5.36 12.68 2.72 11.36 0 10 C0 6.7 0 3.4 0 0 Z " fill="#3A373A" transform="translate(25,83)"/>
<path d="M0 0 C3.96 1.98 3.96 1.98 8 4 C8 7.3 8 10.6 8 14 C5.36 12.68 2.72 11.36 0 10 C0 6.7 0 3.4 0 0 Z " fill="#272122" transform="translate(142,264)"/>
<path d="M0 0 C5.75 1.875 5.75 1.875 8 3 C8 6.3 8 9.6 8 13 C2.25 11.125 2.25 11.125 0 10 C0 6.7 0 3.4 0 0 Z " fill="#302828" transform="translate(125,256)"/>
<path d="M0 0 C0 3.3 0 6.6 0 10 C-5.75 13 -5.75 13 -8 13 C-8 9.7 -8 6.4 -8 3 C-2.25 0 -2.25 0 0 0 Z " fill="#241E1E" transform="translate(158,244)"/>
<path d="M0 0 C0 3.3 0 6.6 0 10 C-5.75 13 -5.75 13 -8 13 C-8 9.7 -8 6.4 -8 3 C-2.25 0 -2.25 0 0 0 Z " fill="#241E1E" transform="translate(267,210)"/>
<path d="M0 0 C3.96 1.98 3.96 1.98 8 4 C8 7.3 8 10.6 8 14 C5.36 12.68 2.72 11.36 0 10 C0 6.7 0 3.4 0 0 Z " fill="#484648" transform="translate(25,185)"/>
<path d="M0 0 C5.75 1.875 5.75 1.875 8 3 C8 6.3 8 9.6 8 13 C2.25 11.125 2.25 11.125 0 10 C0 6.7 0 3.4 0 0 Z " fill="#484648" transform="translate(92,168)"/>
<path d="M0 0 C3.96 1.98 3.96 1.98 8 4 C8 7.3 8 10.6 8 14 C5.36 12.68 2.72 11.36 0 10 C0 6.7 0 3.4 0 0 Z " fill="#2F2E2F" transform="translate(33,97)"/>
<path d="M0 0 C0.78890625 0.39445312 1.5778125 0.78890625 2.390625 1.1953125 C3.18984375 1.58460937 3.9890625 1.97390625 4.8125 2.375 C5.41578125 2.68695313 6.0190625 2.99890625 6.640625 3.3203125 C3.76599598 5.66260281 1.30314053 7.5711616 -2.359375 8.3203125 C-5.20353638 7.27692369 -7.76607724 5.87757815 -10.359375 4.3203125 C-3.55673183 -1.02462142 -3.55673183 -1.02462142 0 0 Z " fill="#302829" transform="translate(168.359375,118.6796875)"/>
<path d="M0 0 C0.78890625 0.39445312 1.5778125 0.78890625 2.390625 1.1953125 C3.18984375 1.58460937 3.9890625 1.97390625 4.8125 2.375 C5.41578125 2.68695313 6.0190625 2.99890625 6.640625 3.3203125 C3.76599598 5.66260281 1.30314053 7.5711616 -2.359375 8.3203125 C-5.20353638 7.27692369 -7.76607724 5.87757815 -10.359375 4.3203125 C-3.55673183 -1.02462142 -3.55673183 -1.02462142 0 0 Z " fill="#3A383A" transform="translate(235.359375,68.6796875)"/>
<path d="M0 0 C0.78890625 0.39445312 1.5778125 0.78890625 2.390625 1.1953125 C3.18984375 1.58460937 3.9890625 1.97390625 4.8125 2.375 C5.41578125 2.68695313 6.0190625 2.99890625 6.640625 3.3203125 C3.76599598 5.66260281 1.30314053 7.5711616 -2.359375 8.3203125 C-5.20353638 7.27692369 -7.76607724 5.87757815 -10.359375 4.3203125 C-3.55673183 -1.02462142 -3.55673183 -1.02462142 0 0 Z " fill="#585558" transform="translate(68.359375,51.6796875)"/>
<path d="M0 0 C2.45049229 1.28093915 4.01450059 2.31633406 5.75 4.4375 C2.4982462 6.37306774 0.45262371 7.46560495 -3.375 7.3125 C-6.26496371 6.43294583 -8.00287291 5.42534319 -10.25 3.4375 C-4.1408927 -0.71669297 -4.1408927 -0.71669297 0 0 Z " fill="#3B3131" transform="translate(152.25,110.5625)"/>
<path d="M0 0 C2.3125 1.0625 2.3125 1.0625 4 2 C4 2.66 4 3.32 4 4 C-1.2519084 7.05343511 -1.2519084 7.05343511 -4.625 6.8125 C-6.87974171 6.04114099 -8.91813812 5.15658993 -11 4 C-11 3.34 -11 2.68 -11 2 C-6.8896419 -0.38974308 -4.59325042 -1.57137514 0 0 Z " fill="#302829" transform="translate(237,86)"/>
<path d="M0 0 C2.375 1.5625 2.375 1.5625 4 3 C-2.1091073 7.15419297 -2.1091073 7.15419297 -6.25 6.4375 C-8.70049229 5.15656085 -10.26450059 4.12116594 -12 2 C-7.55319411 -0.64690827 -5.01614931 -1.52665414 0 0 Z " fill="#423F42" transform="translate(104,78)"/>
<path d="M0 0 C2.45049229 1.28093915 4.01450059 2.31633406 5.75 4.4375 C2.4982462 6.37306774 0.45262371 7.46560495 -3.375 7.3125 C-6.26496371 6.43294583 -8.00287291 5.42534319 -10.25 3.4375 C-4.1408927 -0.71669297 -4.1408927 -0.71669297 0 0 Z " fill="#423F42" transform="translate(202.25,43.5625)"/>
<path d="M0 0 C2.375 1.5625 2.375 1.5625 4 3 C-2.1091073 7.15419297 -2.1091073 7.15419297 -6.25 6.4375 C-8.70049229 5.15656085 -10.26450059 4.12116594 -12 2 C-7.55319411 -0.64690827 -5.01614931 -1.52665414 0 0 Z " fill="#474447" transform="translate(154,11)"/>
<path d="M0 0 C1.56556928 0.76458035 3.12914439 1.53332219 4.6875 2.3125 C4.6875 2.9725 4.6875 3.6325 4.6875 4.3125 C-0.53609155 7.34947183 -0.53609155 7.34947183 -3.9375 7.1875 C-6.48550787 6.24876026 -8.25266712 5.06717245 -10.3125 3.3125 C-4.16879252 -0.86522109 -4.16879252 -0.86522109 0 0 Z " fill="#3B3131" transform="translate(102.3125,85.6875)"/>
<path d="M0 0 C2.3125 1.5625 2.3125 1.5625 4 3 C-0.37222838 5.9731153 -0.37222838 5.9731153 -3 7 C-6.05302041 6.36635426 -8.2421974 5.3789013 -11 4 C-11 3.34 -11 2.68 -11 2 C-6.92603082 -0.36858673 -4.54661189 -1.67506754 0 0 Z " fill="#585558" transform="translate(112,57)"/>
<path d="M0 0 C0.78890625 0.39445312 1.5778125 0.78890625 2.390625 1.1953125 C3.18984375 1.58460937 3.9890625 1.97390625 4.8125 2.375 C5.41578125 2.68695313 6.0190625 2.99890625 6.640625 3.3203125 C3.43320378 6.15764665 0.93266397 7.14863094 -3.359375 7.3203125 C-6.734375 5.8828125 -6.734375 5.8828125 -9.359375 4.3203125 C-6.60983524 1.29581877 -4.23530208 -1.22010358 0 0 Z " fill="#302829" transform="translate(243.359375,47.6796875)"/>
<path d="M0 0 C1.5949466 0.72497573 3.18297876 1.46648938 4.75 2.25 C4.75 2.91 4.75 3.57 4.75 4.25 C-0.40948276 7.44396552 -0.40948276 7.44396552 -4.5 6.5 C-6.0949466 5.77502427 -7.68297876 5.03351062 -9.25 4.25 C-9.25 3.59 -9.25 2.93 -9.25 2.25 C-4.09051724 -0.94396552 -4.09051724 -0.94396552 0 0 Z " fill="#302829" transform="translate(269.25,60.75)"/>
<path d="M0 0 C2.375 1.5625 2.375 1.5625 4 3 C0.7482462 4.93556774 -1.29737629 6.02810495 -5.125 5.875 C-8.01496371 4.99544583 -9.75287291 3.98784319 -12 2 C-7.55319411 -0.64690827 -5.01614931 -1.52665414 0 0 Z " fill="#3A383A" transform="translate(129,49)"/>
<path d="M0 0 C0.69609375 0.39445312 1.3921875 0.78890625 2.109375 1.1953125 C2.81578125 1.58460937 3.5221875 1.97390625 4.25 2.375 C4.78109375 2.68695313 5.3121875 2.99890625 5.859375 3.3203125 C2.93341551 5.81279651 0.74166629 7.13544149 -3.140625 7.3203125 C-6.453125 5.8828125 -6.453125 5.8828125 -9.140625 4.3203125 C-6.52761723 1.44600395 -4.04514008 -1.28440579 0 0 Z " fill="#302829" transform="translate(68.140625,43.6796875)"/>
<path d="M0 0 C2.375 1.5625 2.375 1.5625 4 3 C0.7482462 4.93556774 -1.29737629 6.02810495 -5.125 5.875 C-8.01496371 4.99544583 -9.75287291 3.98784319 -12 2 C-7.55319411 -0.64690827 -5.01614931 -1.52665414 0 0 Z " fill="#3B3131" transform="translate(154,3)"/>
</svg>
